<svg xmlns="http://www.w3.org/2000/svg" viewBox="0 0 57 57"><defs><style>.cls-1{fill:none;}.cls-2{fill:#d61518;}</style></defs><title>icon_takumi</title><g id="レイヤー_2" data-name="レイヤー 2"><g id="レイヤー_1-2" data-name="レイヤー 1"><path class="cls-1" d="M2.17,54.53H54.51V1.84H2.17ZM6.5,5a.59.59,0,0,1,.62,0l4,2.19H43.55a1,1,0,0,0,.82-.33q1.22-1.59,2-2.52c.25-.33.6-.35,1-.06a37.62,37.62,0,0,1,3.68,3.13,1.19,1.19,0,0,1,.33.77c0,.44-.21.66-.61.66H10.42l.06,38.72H45a1,1,0,0,0,.83-.33c.8-1.06,1.46-1.9,2-2.53.25-.33.6-.34,1-.05a36.27,36.27,0,0,1,3.68,3.13,1.17,1.17,0,0,1,.33.77q0,.66-.6.66H10.48V51.4c0,.29-.32.58-1,.88a4.69,4.69,0,0,1-2,.44.89.89,0,0,1-1-1l.1-5.16q.17-6.09.28-11.85.11-8.38.1-16Q7,7.3,6.42,5.6C6.31,5.34,6.33,5.15,6.5,5ZM35.93,44.43c0,.37-.29.71-.87,1a4.31,4.31,0,0,1-2.16.5c-.72,0-1.08-.31-1.09-.94,0,0,0-1.79.11-5.3s.11-6.61.11-8.89v-5H22q-.16,8.08-3,13.31a21.35,21.35,0,0,1-7,7.48c-.55,0-.79-.32-.71-.83a20.11,20.11,0,0,0,5.46-8.23q1.93-5.44,1.77-14.5c-.07-5.23-.33-8.33-.77-9.28a.42.42,0,0,1,.08-.55.55.55,0,0,1,.62-.06c1.12.58,2.55,1.37,4.29,2.35q10.43-1.69,15.31-4a10.06,10.06,0,0,0,1.81-1.42c.14-.07.31,0,.49.17q1.53,1.58,3.84,3.8a.58.58,0,0,1,0,.81.56.56,0,0,1-.82.16,3,3,0,0,0-2.31-.37A103,103,0,0,1,22,17v7.24H43.22a.86.86,0,0,0,.77-.33c.84-1.06,1.5-1.88,2-2.46a.73.73,0,0,1,1.1-.12,44.7,44.7,0,0,1,3.62,3.1,1.11,1.11,0,0,1,.39.81c0,.43-.21.65-.61.65H35.6v5Q35.6,34,35.93,44.43Z"/><path class="cls-2" d="M0,0V57H57V0ZM55,55H2V2H55Z"/><path class="cls-2" d="M50.46,25.84c.4,0,.61-.22.61-.65a1.11,1.11,0,0,0-.39-.81,44.7,44.7,0,0,0-3.62-3.1.73.73,0,0,0-1.1.12c-.47.58-1.13,1.4-2,2.46a.86.86,0,0,1-.77.33H22V17a103,103,0,0,0,19.08-2.29,3,3,0,0,1,2.31.37.56.56,0,0,0,.82-.16.58.58,0,0,0,0-.81q-2.31-2.22-3.84-3.8c-.18-.18-.35-.24-.49-.17a10.06,10.06,0,0,1-1.81,1.42q-4.89,2.33-15.31,4c-1.74-1-3.17-1.77-4.29-2.35a.55.55,0,0,0-.62.06.42.42,0,0,0-.08.55c.44,1,.7,4.05.77,9.28q.16,9.06-1.77,14.5a20.11,20.11,0,0,1-5.46,8.23c-.08.51.16.79.71.83a21.35,21.35,0,0,0,7-7.48q2.85-5.24,3-13.31H32v5c0,2.28,0,5.24-.11,8.89s-.1,5.28-.11,5.3c0,.63.37.94,1.09.94a4.31,4.31,0,0,0,2.16-.5c.58-.33.87-.67.87-1Q35.6,34,35.6,30.84v-5Z"/><path class="cls-2" d="M7,18.76q0,7.57-.1,16-.11,5.76-.28,11.85l-.1,5.16a.89.89,0,0,0,1,1,4.69,4.69,0,0,0,2-.44c.63-.3,1-.59,1-.88V49.21h41.8q.6,0,.6-.66a1.17,1.17,0,0,0-.33-.77,36.27,36.27,0,0,0-3.68-3.13c-.44-.29-.79-.28-1,.05-.51.63-1.17,1.47-2,2.53a1,1,0,0,1-.83.33H10.48L10.42,8.84H50.79c.4,0,.61-.22.61-.66a1.19,1.19,0,0,0-.33-.77,37.62,37.62,0,0,0-3.68-3.13C47,4,46.6,4,46.35,4.34q-.76.93-2,2.52a1,1,0,0,1-.82.33H11.08L7.12,5A.59.59,0,0,0,6.5,5c-.17.13-.19.32-.08.58Q7,7.3,7,18.76Z"/></g></g></svg>